<?xml version="1.0" standalone="no"?><!DOCTYPE svg PUBLIC "-//W3C//DTD SVG 1.1//EN" "http://www.w3.org/Graphics/SVG/1.1/DTD/svg11.dtd"><svg t="1642323060594" class="icon" viewBox="0 0 1024 1024" version="1.1" xmlns="http://www.w3.org/2000/svg" p-id="4888" xmlns:xlink="http://www.w3.org/1999/xlink" width="64" height="64"><defs><style type="text/css"></style></defs><path d="M768 160a96 96 0 1 1-33.216 186.112l-108.384 108.416c4.064 8.032 7.264 16.576 9.568 25.472h41.504a96.032 96.032 0 1 1 0 64h-41.504c-3.04 11.776-7.68 22.848-13.696 33.024l104.32 104.32a96 96 0 1 1-45.248 45.248l-104.32-104.32a127.232 127.232 0 0 1-32.992 13.696v41.504a96.032 96.032 0 1 1-64 0v-41.504a127.104 127.104 0 0 1-25.504-9.568l-108.416 108.384a96 96 0 1 1-41.152-49.376l101.312-101.248a127.36 127.36 0 0 1-18.24-40.128H346.56a96.032 96.032 0 1 1 0-64h41.504c3.008-11.776 7.68-22.88 13.696-33.056l-104.32-104.32a96 96 0 1 1 45.248-45.248l104.32 104.32A127.232 127.232 0 0 1 480 388.032v-41.504a96.032 96.032 0 1 1 64 0v41.504a127.36 127.36 0 0 1 40.16 18.24l101.248-101.312A96 96 0 0 1 768 160zM256 736a32 32 0 1 0 0 64 32 32 0 0 0 0-64z m512 0a32 32 0 1 0 0 64 32 32 0 0 0 0-64z m-256 0a32 32 0 1 0 0 64 32 32 0 0 0 0-64z m0-288a64 64 0 1 0 0 128 64 64 0 0 0 0-128z m256 32a32 32 0 1 0 0 64 32 32 0 0 0 0-64zM256 480a32 32 0 1 0 0 64 32 32 0 0 0 0-64z m512-256a32 32 0 1 0 0 64 32 32 0 0 0 0-64z m-256 0a32 32 0 1 0 0 64 32 32 0 0 0 0-64zM256 224a32 32 0 1 0 0 64 32 32 0 0 0 0-64z" p-id="4889"></path></svg>