<?xml version="1.0" standalone="no"?><!DOCTYPE svg PUBLIC "-//W3C//DTD SVG 1.1//EN" "http://www.w3.org/Graphics/SVG/1.1/DTD/svg11.dtd"><svg t="1642323343312" class="icon" viewBox="0 0 1024 1024" version="1.1" xmlns="http://www.w3.org/2000/svg" p-id="7939" xmlns:xlink="http://www.w3.org/1999/xlink" width="64" height="64"><defs><style type="text/css"></style></defs><path d="M428.3 271.2c12.8 0 24.4 7.8 29.2 19.7l138.3 345.9 54.6-136.5a31.43 31.43 0 0 1 29.2-19.7h136.1c17.3 0 31.4 14.1 31.4 31.4 0 17.3-14.1 31.4-31.4 31.4H700.8L624.9 733a31.43 31.43 0 0 1-29.2 19.7c-12.8 0-24.4-7.8-29.2-19.7L428.3 387.2l-54.6 136.5a31.43 31.43 0 0 1-29.2 19.7H208.4c-17.3 0-31.4-14.1-31.4-31.4 0-17.3 14.1-31.4 31.4-31.4h114.8L399.1 291c4.8-12 16.3-19.8 29.2-19.8z" p-id="7940"></path></svg>