<?xml version="1.0" standalone="no"?><!DOCTYPE svg PUBLIC "-//W3C//DTD SVG 1.1//EN" "http://www.w3.org/Graphics/SVG/1.1/DTD/svg11.dtd"><svg t="1642323191334" class="icon" viewBox="0 0 1024 1024" version="1.1" xmlns="http://www.w3.org/2000/svg" p-id="5986" xmlns:xlink="http://www.w3.org/1999/xlink" width="64" height="64"><defs><style type="text/css"></style></defs><path d="M426.666667 213.333333a42.666667 42.666667 0 1 0 42.666666 42.666667 42.666667 42.666667 0 0 0-42.666666-42.666667zM256 213.333333a42.666667 42.666667 0 1 0 42.666667 42.666667 42.666667 42.666667 0 0 0-42.666667-42.666667z m341.333333 0a42.666667 42.666667 0 1 0 42.666667 42.666667 42.666667 42.666667 0 0 0-42.666667-42.666667z m256-170.666666H170.666667a128 128 0 0 0-128 128v682.666666a128 128 0 0 0 128 128h682.666666a128 128 0 0 0 128-128V170.666667a128 128 0 0 0-128-128z m42.666667 810.666666a42.666667 42.666667 0 0 1-42.666667 42.666667H170.666667a42.666667 42.666667 0 0 1-42.666667-42.666667v-384h768z m0-469.333333H128V170.666667a42.666667 42.666667 0 0 1 42.666667-42.666667h682.666666a42.666667 42.666667 0 0 1 42.666667 42.666667z" p-id="5987"></path></svg>